<?xml version="1.0" encoding="utf-8"?>
<!-- Generator: Adobe Illustrator 23.0.1, SVG Export Plug-In . SVG Version: 6.00 Build 0)  -->
<svg version="1.1" id="Layer_1" xmlns="http://www.w3.org/2000/svg" xmlns:xlink="http://www.w3.org/1999/xlink" x="0px" y="0px"
	 viewBox="0 0 275 96" style="enable-background:new 0 0 258 96;" xml:space="preserve">
<style type="text/css">
	.st0{fill:#FF1300;}
	.st1{fill:#E0E0E0;}
</style>
<g>
	<rect x="225" y="58" class="st0" width="8.23" height="8.23"/>
	<g>
		<path class="st1" d="M209.38,60.17c-1.14-0.01-1.85-0.59-2.22-1.35c-0.46-1-0.73-2.67-0.68-7.33c0.03-3.28,0.2-5.46,0.83-6.65
			c0.39-0.76,1.11-1.32,2.25-1.31c1.14,0.01,1.85,0.59,2.22,1.35c0.47,1,0.73,2.67,0.68,7.33c-0.03,3.28-0.2,5.46-0.83,6.65
			C211.24,59.62,210.52,60.18,209.38,60.17 M220.88,51.87c0.05-4.9-0.58-8.14-2.32-10.39c-1.97-2.54-5-3.57-8.8-3.61
			c-3.9-0.04-7.14,0.97-9.16,3.52c-1.73,2.17-2.48,5.35-2.53,10.43c-0.05,4.9,0.58,8.14,2.32,10.39c1.97,2.54,5,3.57,8.8,3.61
			c3.9,0.04,7.14-0.97,9.16-3.52C220.08,60.14,220.82,56.96,220.88,51.87 M195.23,58.98l-0.33,0c0,0-1.38,0.27-2.62,0.26
			c-1-0.01-1.66-0.21-2.04-0.73c-0.42-0.57-0.41-1.48-0.4-2.43l0.12-11.5l5.42,0.06l0.06-6.04l-5.42-0.06l0.08-7.65l-8.05,1.91
			l-0.06,5.66l-3.61-0.04l-0.06,6.04l3.61,0.04l-0.12,11.6c-0.03,2.42-0.05,4.61,1.12,6.38c1.36,2.06,3.92,2.8,7.39,2.83
			c2.95,0.03,4.85-0.47,4.85-0.47L195.23,58.98z M162.86,48.85c0.04-3.94,0.68-5.89,2.77-5.87c2.04,0.02,2.45,1.97,2.41,5.92
			L162.86,48.85z M174.46,58.28l-0.33,0c0,0-3.62,1.01-6.24,0.98c-3.56-0.04-5.07-1.95-5.03-5.42l13.02,0.14
			c0.06-5.8,0.1-9.7-1.82-12.66c-1.69-2.54-4.52-3.85-8.28-3.89c-8.13-0.08-10.85,5.83-10.94,13.91c-0.04,4.33,0.68,7.95,2.75,10.34
			c1.78,2.06,4.62,3.33,9.23,3.38c4.04,0.04,7.57-0.87,7.57-0.87L174.46,58.28z M140.47,49.52c-1.47-0.02-2.23-0.88-2.2-3.59
			c0.03-2.66,0.8-3.56,2.27-3.54c1.47,0.02,2.22,0.93,2.2,3.59C142.71,48.68,141.94,49.53,140.47,49.52 M141.46,63.69
			c0.33,0,0.9,0.01,1.33,0.2c0.71,0.29,1.18,0.82,1.17,1.87c-0.02,1.66-1.22,2.55-4.07,2.52c-2.71-0.03-4.17-0.85-4.15-2.94
			c0.01-1.24,0.49-1.71,0.49-1.71L141.46,63.69z M150.58,46.1c0.01-1.09-0.12-2.14-0.4-3.05c0.24-0.09,0.67-0.23,1.43-0.22
			c0.86,0.01,1.71,0.16,1.71,0.16l0.07-7.03l-0.52-0.01c-1.14-0.01-3.66-0.04-4.6,3.8c-1.69-1.63-4.25-2.52-7.72-2.55
			c-6.7-0.07-10.16,3.08-10.22,8.69c-0.04,3.76,1.45,6.39,4.39,7.75c-1.62,0.27-4.62,1.24-4.66,4.56c-0.04,3.37,2.95,4.36,3.09,4.41
			c-0.19,0.05-4.05,0.53-4.09,4.95c-0.04,3.9,2.93,5.83,10.3,5.91c9.22,0.1,13.05-2.86,13.11-8.61c0.04-3.66-1.51-5.53-3.12-6.45
			c-1.89-1.07-4.17-1.09-5.36-1.1l-3.42-0.04c-1.19-0.01-2.52-0.03-2.5-1.45c0.01-0.71,0.3-1.04,0.44-1.23
			c0.62,0.05,1.19,0.11,1.85,0.11C147.07,54.77,150.52,51.71,150.58,46.1 M112.21,55.69c0.04-3.42,2.36-3.4,4.08-3.38l0.76,0.01
			l-0.02,1.95c-0.01,1-0.02,2.33-0.46,3.18c-0.34,0.66-1.11,1.18-2.2,1.17C112.85,58.59,112.19,57.54,112.21,55.69 M106.58,44.17
			l0.33,0c0,0,3.43-1.2,6.71-1.17c1.71,0.02,2.61,0.36,3.08,1.03c0.42,0.62,0.41,1.38,0.39,3.57c0,0-0.71-0.1-1.95-0.12
			c-6.99-0.07-10.92,3.12-10.98,9.11c-0.06,5.32,3.01,7.87,7.48,7.92c3.09,0.03,5.57-1.13,6.41-4.21c0.49,2.9,2.05,4.25,5.52,4.29
			c1.9,0.02,3.71-0.34,3.71-0.34l0.06-5.66c0,0-0.33,0.04-0.67,0.04c-1.76-0.02-1.74-1.44-1.73-2.35l0.09-8.56
			c0.04-3.42,0.06-5.51-1.16-7.33c-1.5-2.25-4.44-3.14-8.95-3.18c-5.09-0.05-8.28,1.01-8.28,1.01L106.58,44.17z M89.62,43
			c1.09,0.01,1.85,0.49,2.27,1.26c0.65,1.15,0.77,3.34,0.74,6.43c-0.03,3.09-0.2,5.23-0.87,6.36c-0.44,0.76-1.2,1.22-2.29,1.21
			c-1.09-0.01-1.85-0.49-2.27-1.26c-0.65-1.15-0.77-3.34-0.74-6.43c0.03-3.09,0.2-5.23,0.87-6.36C87.76,43.45,88.53,42.99,89.62,43
			 M92.88,27.25l-0.13,12.74c-0.88-2.34-2.87-3.22-5.39-3.24c-3.09-0.03-5.24,1.23-6.69,3.12c-1.93,2.5-2.58,6.2-2.63,10.95
			c-0.05,4.61,0.49,7.94,2.13,10.34c1.45,2.11,3.67,3.22,6.48,3.25c2.95,0.03,5.43-1.18,6.32-4.07l1.34,3.67l6.23,0.06l0.38-36.74
			L92.88,27.25z M60.36,55.15c0.04-3.42,2.36-3.4,4.08-3.38l0.76,0.01l-0.02,1.95c-0.01,1-0.02,2.33-0.46,3.18
			c-0.34,0.66-1.11,1.18-2.2,1.17C60.99,58.05,60.34,57,60.36,55.15 M54.72,43.63l0.33,0c0,0,3.44-1.2,6.71-1.17
			c1.71,0.02,2.61,0.36,3.08,1.03c0.42,0.62,0.41,1.38,0.39,3.57c0,0-0.71-0.1-1.95-0.12c-6.99-0.07-10.92,3.12-10.98,9.11
			c-0.06,5.32,3.01,7.87,7.48,7.92c3.09,0.03,5.57-1.13,6.41-4.21c0.49,2.9,2.05,4.25,5.52,4.29c1.9,0.02,3.71-0.34,3.71-0.34
			l0.06-5.66c0,0-0.33,0.04-0.67,0.04c-1.76-0.02-1.74-1.44-1.73-2.35l0.09-8.56c0.04-3.42,0.06-5.51-1.16-7.33
			c-1.5-2.25-4.44-3.14-8.95-3.18c-5.09-0.05-8.28,1.01-8.28,1.01L54.72,43.63z M27.76,26.57l-0.38,36.74l8.03,0.08l0.18-17.25
			c0.01-1.43,0.13-3.23,2.65-3.21c1.05,0.01,1.85,0.35,2.22,1.02c0.37,0.67,0.37,1.48,0.35,2.52l-0.18,16.97l8.18,0.09l0.18-16.97
			c0.03-3.23,0.06-5.42-1.02-7.24c-1.17-2.06-3.2-3.03-6.1-3.06c-3.56-0.04-5.43,1.42-6.22,3.88l0.14-13.5L27.76,26.57z"/>
	</g>
</g>
</svg>
